<?xml version="1.0" encoding="utf-8" standalone="no"?>
<!DOCTYPE svg PUBLIC "-//W3C//DTD SVG 1.1//EN"
  "http://www.w3.org/Graphics/SVG/1.1/DTD/svg11.dtd">
<svg xmlns:xlink="http://www.w3.org/1999/xlink" width="396pt" height="205.2pt" viewBox="0 0 396 205.2" xmlns="http://www.w3.org/2000/svg" version="1.1">
 <metadata>
  <rdf:RDF xmlns:dc="http://purl.org/dc/elements/1.1/" xmlns:cc="http://creativecommons.org/ns#" xmlns:rdf="http://www.w3.org/1999/02/22-rdf-syntax-ns#">
   <cc:Work>
    <dc:type rdf:resource="http://purl.org/dc/dcmitype/StillImage"/>
    <dc:date>2026-09-13T02:18:54.062225</dc:date>
    <dc:format>image/svg+xml</dc:format>
    <dc:creator>
     <cc:Agent>
      <dc:title>Matplotlib v3.10.6, https://matplotlib.org/</dc:title>
     </cc:Agent>
    </dc:creator>
   </cc:Work>
  </rdf:RDF>
 </metadata>
 <defs>
  <style type="text/css">*{stroke-linejoin: round; stroke-linecap: butt}</style>
 </defs>
 <g id="figure_1">
  <g id="patch_1">
   <path d="M 0 205.2 
L 396 205.2 
L 396 0 
L 0 0 
z
" style="fill: #ffffff"/>
  </g>
  <g id="axes_1">
   <g id="patch_2">
    <path d="M 14.256 44.64 
L 72.864 44.64 
Q 75.636 44.64 75.636 42.12 
L 75.636 29.16 
Q 75.636 26.64 72.864 26.64 
L 14.256 26.64 
Q 11.484 26.64 11.484 29.16 
L 11.484 42.12 
Q 11.484 44.64 14.256 44.64 
z
" clip-path="url(#pd4f0b9c1d3)" style="fill: #f0f3f5; stroke: #516576; stroke-width: 0.65; stroke-linejoin: miter"/>
   </g>
   <g id="patch_3">
    <path d="M 140.976 44.64 
L 199.584 44.64 
Q 202.356 44.64 202.356 42.12 
L 202.356 29.16 
Q 202.356 26.64 199.584 26.64 
L 140.976 26.64 
Q 138.204 26.64 138.204 29.16 
L 138.204 42.12 
Q 138.204 44.64 140.976 44.64 
z
" clip-path="url(#pd4f0b9c1d3)" style="fill: #f0f3f5; stroke: #516576; stroke-width: 0.65; stroke-linejoin: miter"/>
   </g>
   <g id="patch_4">
    <path d="M 271.656 44.64 
L 330.264 44.64 
Q 333.036 44.64 333.036 42.12 
L 333.036 29.16 
Q 333.036 26.64 330.264 26.64 
L 271.656 26.64 
Q 268.884 26.64 268.884 29.16 
L 268.884 42.12 
Q 268.884 44.64 271.656 44.64 
z
" clip-path="url(#pd4f0b9c1d3)" style="fill: #f0f3f5; stroke: #516576; stroke-width: 0.65; stroke-linejoin: miter"/>
   </g>
   <g id="patch_5">
    <path d="M 75.24 35.64 
Q 106.92 35.64 137.761475 35.64 
" clip-path="url(#pd4f0b9c1d3)" style="fill: none; stroke: #516576; stroke-width: 0.75; stroke-linecap: round"/>
    <path d="M 134.961475 34.24 
L 137.761475 35.64 
L 134.961475 37.04 
z
" clip-path="url(#pd4f0b9c1d3)" style="fill: #516576; stroke: #516576; stroke-width: 0.75; stroke-linecap: round"/>
   </g>
   <g id="patch_6">
    <path d="M 201.96 35.64 
Q 235.62 35.64 268.441475 35.64 
" clip-path="url(#pd4f0b9c1d3)" style="fill: none; stroke: #516576; stroke-width: 0.75; stroke-linecap: round"/>
    <path d="M 265.641475 34.24 
L 268.441475 35.64 
L 265.641475 37.04 
z
" clip-path="url(#pd4f0b9c1d3)" style="fill: #516576; stroke: #516576; stroke-width: 0.75; stroke-linecap: round"/>
   </g>
   <g id="patch_7">
    <path d="M 332.64 35.64 
Q 358.38 35.64 383.281475 35.64 
" clip-path="url(#pd4f0b9c1d3)" style="fill: none; stroke: #516576; stroke-width: 0.75; stroke-linecap: round"/>
    <path d="M 380.481475 34.24 
L 383.281475 35.64 
L 380.481475 37.04 
z
" clip-path="url(#pd4f0b9c1d3)" style="fill: #516576; stroke: #516576; stroke-width: 0.75; stroke-linecap: round"/>
   </g>
   <g id="patch_8">
    <path d="M 102.96 21.6 
L 110.88 25.92 
L 110.88 21.6 
L 102.96 25.92 
z
" clip-path="url(#pd4f0b9c1d3)" style="fill: #ffffff; stroke: #c77227; stroke-width: 0.7; stroke-linejoin: miter"/>
   </g>
   <g id="patch_9">
    <path d="M 106.92 25.92 
Q 106.92 30.42 106.92 34.081475 
" clip-path="url(#pd4f0b9c1d3)" style="fill: none; stroke: #c77227; stroke-width: 0.75; stroke-linecap: round"/>
    <path d="M 108.32 31.281475 
L 106.92 34.081475 
L 105.52 31.281475 
z
" clip-path="url(#pd4f0b9c1d3)" style="fill: #c77227; stroke: #c77227; stroke-width: 0.75; stroke-linecap: round"/>
   </g>
   <g id="patch_10">
    <path d="M 233.64 21.6 
L 241.56 25.92 
L 241.56 21.6 
L 233.64 25.92 
z
" clip-path="url(#pd4f0b9c1d3)" style="fill: #ffffff; stroke: #c77227; stroke-width: 0.7; stroke-linejoin: miter"/>
   </g>
   <g id="patch_11">
    <path d="M 237.6 25.92 
Q 237.6 30.42 237.6 34.081475 
" clip-path="url(#pd4f0b9c1d3)" style="fill: none; stroke: #c77227; stroke-width: 0.75; stroke-linecap: round"/>
    <path d="M 239 31.281475 
L 237.6 34.081475 
L 236.2 31.281475 
z
" clip-path="url(#pd4f0b9c1d3)" style="fill: #c77227; stroke: #c77227; stroke-width: 0.75; stroke-linecap: round"/>
   </g>
   <g id="patch_12">
    <path d="M 10.296 133.56 
L 80.784 133.56 
Q 83.556 133.56 83.556 131.04 
L 83.556 92.16 
Q 83.556 89.64 80.784 89.64 
L 10.296 89.64 
Q 7.524 89.64 7.524 92.16 
L 7.524 131.04 
Q 7.524 133.56 10.296 133.56 
z
" clip-path="url(#pd4f0b9c1d3)" style="fill: #f0f3f5; stroke: #516576; stroke-width: 0.65; stroke-linejoin: miter"/>
   </g>
   <g id="patch_13">
    <path d="M 105.336 101.16 
L 167.904 101.16 
Q 170.676 101.16 170.676 98.64 
L 170.676 86.76 
Q 170.676 84.24 167.904 84.24 
L 105.336 84.24 
Q 102.564 84.24 102.564 86.76 
L 102.564 98.64 
Q 102.564 101.16 105.336 101.16 
z
" clip-path="url(#pd4f0b9c1d3)" style="fill: #f0f3f5; stroke: #516576; stroke-width: 0.65; stroke-linejoin: miter"/>
   </g>
   <g id="patch_14">
    <path d="M 105.336 133.56 
L 167.904 133.56 
Q 170.676 133.56 170.676 131.04 
L 170.676 112.32 
Q 170.676 109.8 167.904 109.8 
L 105.336 109.8 
Q 102.564 109.8 102.564 112.32 
L 102.564 131.04 
Q 102.564 133.56 105.336 133.56 
z
" clip-path="url(#pd4f0b9c1d3)" style="fill: #edf8f5; stroke: #008477; stroke-width: 0.65; stroke-linejoin: miter"/>
   </g>
   <g id="patch_15">
    <path d="M 83.16 97.56 
Q 93.06 95.58 102.137758 93.764448 
" clip-path="url(#pd4f0b9c1d3)" style="fill: none; stroke: #516576; stroke-width: 0.75; stroke-linecap: round"/>
    <path d="M 99.11757 92.940761 
L 102.137758 93.764448 
L 99.666695 95.686387 
z
" clip-path="url(#pd4f0b9c1d3)" style="fill: #516576; stroke: #516576; stroke-width: 0.75; stroke-linecap: round"/>
   </g>
   <g id="patch_16">
    <path d="M 83.16 118.8 
Q 93.06 120.24 102.130207 121.559303 
" clip-path="url(#pd4f0b9c1d3)" style="fill: none; stroke: #008477; stroke-width: 0.75; stroke-linecap: round"/>
    <path d="M 99.56088 119.77085 
L 102.130207 121.559303 
L 99.157849 122.541692 
z
" clip-path="url(#pd4f0b9c1d3)" style="fill: #008477; stroke: #008477; stroke-width: 0.75; stroke-linecap: round"/>
   </g>
   <g id="patch_17">
    <path d="M 190.08 111.24 
C 191.340245 111.24 192.549044 110.784818 193.440171 109.974701 
C 194.331299 109.164585 194.832 108.065677 194.832 106.92 
C 194.832 105.774323 194.331299 104.675415 193.440171 103.865299 
C 192.549044 103.055182 191.340245 102.6 190.08 102.6 
C 188.819755 102.6 187.610956 103.055182 186.719829 103.865299 
C 185.828701 104.675415 185.328 105.774323 185.328 106.92 
C 185.328 108.065677 185.828701 109.164585 186.719829 109.974701 
C 187.610956 110.784818 188.819755 111.24 190.08 111.24 
z
" clip-path="url(#pd4f0b9c1d3)" style="fill: #ffffff; stroke: #516576; stroke-width: 0.7; stroke-linejoin: miter"/>
   </g>
   <g id="patch_18">
    <path d="M 170.28 93.6 
Q 179.19 98.1 187.351518 102.221979 
" clip-path="url(#pd4f0b9c1d3)" style="fill: none; stroke: #516576; stroke-width: 0.75; stroke-linecap: round"/>
    <path d="M 185.483335 99.710029 
L 187.351518 102.221979 
L 184.221048 102.209356 
z
" clip-path="url(#pd4f0b9c1d3)" style="fill: #516576; stroke: #516576; stroke-width: 0.75; stroke-linecap: round"/>
   </g>
   <g id="patch_19">
    <path d="M 170.28 121.68 
Q 179.19 116.46 187.376496 111.663871 
" clip-path="url(#pd4f0b9c1d3)" style="fill: none; stroke: #008477; stroke-width: 0.75; stroke-linecap: round"/>
    <path d="M 184.25288 111.871299 
L 187.376496 111.663871 
L 185.668269 114.28722 
z
" clip-path="url(#pd4f0b9c1d3)" style="fill: #008477; stroke: #008477; stroke-width: 0.75; stroke-linecap: round"/>
   </g>
   <g id="patch_20">
    <path d="M 194.832 106.92 
Q 206.316 106.92 216.961475 106.92 
" clip-path="url(#pd4f0b9c1d3)" style="fill: none; stroke: #233645; stroke-width: 0.75; stroke-linecap: round"/>
    <path d="M 214.161475 105.52 
L 216.961475 106.92 
L 214.161475 108.32 
z
" clip-path="url(#pd4f0b9c1d3)" style="fill: #233645; stroke: #233645; stroke-width: 0.75; stroke-linecap: round"/>
   </g>
   <g id="patch_21">
    <path d="M 220.176 126.36 
L 306.504 126.36 
Q 309.276 126.36 309.276 123.84 
L 309.276 92.16 
Q 309.276 89.64 306.504 89.64 
L 220.176 89.64 
Q 217.404 89.64 217.404 92.16 
L 217.404 123.84 
Q 217.404 126.36 220.176 126.36 
z
" clip-path="url(#pd4f0b9c1d3)" style="fill: #f0f3f5; stroke: #516576; stroke-width: 0.65; stroke-linejoin: miter"/>
   </g>
   <g id="patch_22">
    <path d="M 220.176 86.76 
L 306.504 86.76 
Q 309.276 86.76 309.276 84.24 
L 309.276 78.84 
Q 309.276 76.32 306.504 76.32 
L 220.176 76.32 
Q 217.404 76.32 217.404 78.84 
L 217.404 84.24 
Q 217.404 86.76 220.176 86.76 
z
" clip-path="url(#pd4f0b9c1d3)" style="fill: #fff5e9; stroke: #c77227; stroke-width: 0.65; stroke-linejoin: miter"/>
   </g>
   <g id="patch_23">
    <path d="M 263.34 86.4 
Q 263.34 88.2 263.34 89.161475 
" clip-path="url(#pd4f0b9c1d3)" style="fill: none; stroke: #c77227; stroke-width: 0.75; stroke-linecap: round"/>
    <path d="M 264.74 86.361475 
L 263.34 89.161475 
L 261.94 86.361475 
z
" clip-path="url(#pd4f0b9c1d3)" style="fill: #c77227; stroke: #c77227; stroke-width: 0.75; stroke-linecap: round"/>
   </g>
   <g id="patch_24">
    <path d="M 308.88 106.92 
Q 318.78 106.92 327.841475 106.92 
" clip-path="url(#pd4f0b9c1d3)" style="fill: none; stroke: #233645; stroke-width: 0.75; stroke-linecap: round"/>
    <path d="M 325.041475 105.52 
L 327.841475 106.92 
L 325.041475 108.32 
z
" clip-path="url(#pd4f0b9c1d3)" style="fill: #233645; stroke: #233645; stroke-width: 0.75; stroke-linecap: round"/>
   </g>
   <g id="patch_25">
    <path d="M 331.056 126.36 
L 385.704 126.36 
Q 388.476 126.36 388.476 123.84 
L 388.476 92.16 
Q 388.476 89.64 385.704 89.64 
L 331.056 89.64 
Q 328.284 89.64 328.284 92.16 
L 328.284 123.84 
Q 328.284 126.36 331.056 126.36 
z
" clip-path="url(#pd4f0b9c1d3)" style="fill: #f0f3f5; stroke: #516576; stroke-width: 0.65; stroke-linejoin: miter"/>
   </g>
   <g id="patch_26">
    <path d="M 105.336 177.12 
L 211.464 177.12 
Q 214.236 177.12 214.236 174.6 
L 214.236 150.12 
Q 214.236 147.6 211.464 147.6 
L 105.336 147.6 
Q 102.564 147.6 102.564 150.12 
L 102.564 174.6 
Q 102.564 177.12 105.336 177.12 
z
" clip-path="url(#pd4f0b9c1d3)" style="fill: #edf8f5; stroke: #008477; stroke-width: 0.65; stroke-linejoin: miter"/>
   </g>
   <g id="patch_27">
    <path d="M 233.64 126 
Q 217.8 136.8 202.652813 147.127628 
" clip-path="url(#pd4f0b9c1d3)" style="fill: none; stroke: #008477; stroke-width: 0.75; stroke-linecap: round"/>
    <path d="M 205.754921 146.707003 
L 202.652813 147.127628 
L 204.177578 144.393566 
z
" clip-path="url(#pd4f0b9c1d3)" style="fill: #008477; stroke: #008477; stroke-width: 0.75; stroke-linecap: round"/>
   </g>
   <g id="patch_28">
    <path d="M 213.84 162.36 
Q 245.52 144.18 276.47272 126.417359 
" clip-path="url(#pd4f0b9c1d3)" style="fill: none; stroke: #008477; stroke-width: 0.75; stroke-linecap: round"/>
    <path d="M 273.347368 126.596739 
L 276.47272 126.417359 
L 274.741013 129.025269 
z
" clip-path="url(#pd4f0b9c1d3)" style="fill: #008477; stroke: #008477; stroke-width: 0.75; stroke-linecap: round"/>
   </g>
   <g id="patch_29">
    <path d="M 358.38 126 
Q 358.38 140.4 358.38 153.961475 
" clip-path="url(#pd4f0b9c1d3)" style="fill: none; stroke: #516576; stroke-width: 0.75; stroke-linecap: round"/>
    <path d="M 359.78 151.161475 
L 358.38 153.961475 
L 356.98 151.161475 
z
" clip-path="url(#pd4f0b9c1d3)" style="fill: #516576; stroke: #516576; stroke-width: 0.75; stroke-linecap: round"/>
   </g>
   <g id="line2d_1">
    <path d="M 7.92 63.36 
L 388.08 63.36 
" clip-path="url(#pd4f0b9c1d3)" style="fill: none; stroke: #cdd5da; stroke-width: 0.6; stroke-linecap: square"/>
   </g>
   <g id="text_1">
    <text style="font-weight: 700; font-size: 7.6px; font-family: 'Microsoft YaHei', 'DejaVu Sans', sans-serif; text-anchor: start; fill: #233645" x="7.92" y="11.092969" transform="rotate(-0 7.92 11.092969)">a  从主汽温预测到阀门动作评估</text>
   </g>
   <g id="text_2">
    <text style="font-size: 6.5px; font-family: 'Microsoft YaHei', 'DejaVu Sans', sans-serif; text-anchor: middle; fill: #516576" x="43.56" y="37.430039" transform="rotate(-0 43.56 37.430039)">一级加热</text>
   </g>
   <g id="text_3">
    <text style="font-size: 6.5px; font-family: 'Microsoft YaHei', 'DejaVu Sans', sans-serif; text-anchor: middle; fill: #516576" x="170.28" y="37.430039" transform="rotate(-0 170.28 37.430039)">二级加热</text>
   </g>
   <g id="text_4">
    <text style="font-size: 6.5px; font-family: 'Microsoft YaHei', 'DejaVu Sans', sans-serif; text-anchor: middle; fill: #516576" x="300.96" y="37.430039" transform="rotate(-0 300.96 37.430039)">末级加热</text>
   </g>
   <g id="text_5">
    <text style="font-size: 6.4px; font-family: 'Microsoft YaHei', 'DejaVu Sans', sans-serif; text-anchor: middle; fill: #c77227" x="106.92" y="19.0425" transform="rotate(-0 106.92 19.0425)">一级减温阀</text>
   </g>
   <g id="text_6">
    <text style="font-size: 6.4px; font-family: 'Microsoft YaHei', 'DejaVu Sans', sans-serif; text-anchor: middle; fill: #c77227" x="237.6" y="19.0425" transform="rotate(-0 237.6 19.0425)">二级减温阀</text>
   </g>
   <g id="text_7">
    <text style="font-size: 6.3px; font-family: 'Microsoft YaHei', 'DejaVu Sans', sans-serif; text-anchor: middle; fill: #233645" x="360.36" y="45.654961" transform="rotate(-0 360.36 45.654961)">主蒸汽</text>
   </g>
   <g id="text_8">
    <text style="font-size: 6.1px; font-family: 'Microsoft YaHei', 'DejaVu Sans', sans-serif; text-anchor: start; fill: #516576" x="11.88" y="56.528078" transform="rotate(-0 11.88 56.528078)">600 MW 直流炉  |  物理流程示意</text>
   </g>
   <g id="text_9">
    <text style="font-weight: 700; font-size: 7.4px; font-family: 'Microsoft YaHei', 'DejaVu Sans', sans-serif; text-anchor: start; fill: #233645" x="7.92" y="72.597891" transform="rotate(-0 7.92 72.597891)">b  选定融合模型：学习初态，物理方程承载动作</text>
   </g>
   <g id="text_10">
    <text style="font-size: 6.2px; font-family: 'Microsoft YaHei', 'DejaVu Sans', sans-serif; fill: #516576" transform="translate(30.769469 102.074475)">过去 96 步</text>
    <text style="font-size: 6.2px; font-family: 'Microsoft YaHei', 'DejaVu Sans', sans-serif; fill: #516576" transform="translate(36.604734 109.563106)">5 温度</text>
    <text style="font-size: 6.2px; font-family: 'Microsoft YaHei', 'DejaVu Sans', sans-serif; fill: #516576" transform="translate(17.335328 117.051738)">2 阀位 + 7 基础边界</text>
    <text style="font-size: 6.2px; font-family: 'Microsoft YaHei', 'DejaVu Sans', sans-serif; fill: #516576" transform="translate(27.188 124.540369)">+ 9 扩展变量</text>
   </g>
   <g id="text_11">
    <text style="font-size: 6.5px; font-family: 'Microsoft YaHei', 'DejaVu Sans', sans-serif; text-anchor: middle; fill: #516576" x="136.62" y="94.490039" transform="rotate(-0 136.62 94.490039)">物理锚点</text>
   </g>
   <g id="text_12">
    <text style="font-size: 6.4px; font-family: 'Microsoft YaHei', 'DejaVu Sans', sans-serif; fill: #008477" transform="translate(119.2155 119.5774)">GRU 观察器</text>
    <text style="font-size: 6.4px; font-family: 'Microsoft YaHei', 'DejaVu Sans', sans-serif; fill: #008477" transform="translate(123.82 127.3076)">有界修正</text>
   </g>
   <g id="text_13">
    <text style="font-size: 8px; font-family: 'Microsoft YaHei', 'DejaVu Sans', sans-serif; text-anchor: middle; fill: #233645" x="190.08" y="109.123125" transform="rotate(-0 190.08 109.123125)">+</text>
   </g>
   <g id="text_14">
    <text style="font-size: 5.9px; font-family: 'Microsoft YaHei', 'DejaVu Sans', sans-serif; text-anchor: middle; fill: #008477" x="185.328" y="126.904805" transform="rotate(-0 185.328 126.904805)">掩码</text>
   </g>
   <g id="text_15">
    <text style="font-size: 6.2px; font-family: 'Microsoft YaHei', 'DejaVu Sans', sans-serif; text-anchor: middle; fill: #233645" x="205.92" y="102.507422" transform="rotate(-0 205.92 102.507422)">x(t)</text>
   </g>
   <g id="text_16">
    <text style="font-size: 6.25px; font-family: 'Microsoft YaHei', 'DejaVu Sans', sans-serif; fill: #516576" transform="translate(244.59 102.172168)">物理状态转移</text>
    <text style="font-size: 6.25px; font-family: 'Microsoft YaHei', 'DejaVu Sans', sans-serif; fill: #516576" transform="translate(245.865391 109.721191)">喷水 → 混合</text>
    <text style="font-size: 6.25px; font-family: 'Microsoft YaHei', 'DejaVu Sans', sans-serif; fill: #516576" transform="translate(234.964512 117.270215)">蒸汽—金属能量平衡</text>
   </g>
   <g id="text_17">
    <text style="font-size: 6.1px; font-family: 'Microsoft YaHei', 'DejaVu Sans', sans-serif; text-anchor: middle; fill: #c77227" x="263.34" y="83.219883" transform="rotate(-0 263.34 83.219883)">阀位 u + 边界 b</text>
   </g>
   <g id="text_18">
    <text style="font-size: 6.1px; font-family: 'Microsoft YaHei', 'DejaVu Sans', sans-serif; fill: #516576" transform="translate(342.73493 102.155438)">状态 x(t+k)</text>
    <text style="font-size: 6.1px; font-family: 'Microsoft YaHei', 'DejaVu Sans', sans-serif; fill: #516576" transform="translate(337.226344 109.801216)">物理观测映射 g</text>
    <text style="font-size: 6.1px; font-family: 'Microsoft YaHei', 'DejaVu Sans', sans-serif; fill: #516576" transform="translate(346.538852 117.204328)">5 个温度</text>
   </g>
   <g id="text_19">
    <text style="font-size: 6.2px; font-family: 'Microsoft YaHei', 'DejaVu Sans', sans-serif; text-anchor: middle; fill: #516576" x="293.04" y="138.507422" transform="rotate(-0 293.04 138.507422)">转移 × 18</text>
   </g>
   <g id="text_20">
    <text style="font-size: 6.2px; font-family: 'Microsoft YaHei', 'DejaVu Sans', sans-serif; fill: #008477" transform="translate(133.196031 160.323106)">残差 MLP：r(x, b)</text>
    <text style="font-size: 6.2px; font-family: 'Microsoft YaHei', 'DejaVu Sans', sans-serif; fill: #008477" transform="translate(121.140906 167.811738)">不直接读取阀位 / 喷水流量</text>
   </g>
   <g id="text_21">
    <text style="font-size: 6.2px; font-family: 'Microsoft YaHei', 'DejaVu Sans', sans-serif; fill: #008477" transform="translate(244.819453 157.083106)">蒸汽 +r</text>
    <text style="font-size: 6.2px; font-family: 'Microsoft YaHei', 'DejaVu Sans', sans-serif; fill: #008477" transform="translate(244.819453 164.571738)">金属 −r</text>
   </g>
   <g id="text_22">
    <text style="font-size: 6.2px; font-family: 'Microsoft YaHei', 'DejaVu Sans', sans-serif; text-anchor: start; fill: #008477" x="11.88" y="150.027422" transform="rotate(-0 11.88 150.027422)">学习模块</text>
   </g>
   <g id="text_23">
    <text style="font-size: 6.2px; font-family: 'Microsoft YaHei', 'DejaVu Sans', sans-serif; text-anchor: start; fill: #516576" x="11.88" y="162.627422" transform="rotate(-0 11.88 162.627422)">物理模块</text>
   </g>
   <g id="text_24">
    <text style="font-size: 6.4px; font-family: 'Microsoft YaHei', 'DejaVu Sans', sans-serif; fill: #233645" transform="translate(348.78 165.2974)">报告：</text>
    <text style="font-size: 6.4px; font-family: 'Microsoft YaHei', 'DejaVu Sans', sans-serif; fill: #233645" transform="translate(345.9985 173.0276)">主汽温 T</text>
   </g>
   <g id="text_25">
    <text style="font-size: 6.3px; font-family: 'Microsoft YaHei', 'DejaVu Sans', sans-serif; text-anchor: start; fill: #233645" x="7.92" y="193.254961" transform="rotate(-0 7.92 193.254961)">探针：相同历史、固定边界，仅将一个阀位增加 0.05。</text>
   </g>
  </g>
 </g>
 <defs>
  <clipPath id="pd4f0b9c1d3">
   <rect x="0" y="0" width="396" height="205.2"/>
  </clipPath>
 </defs>
</svg>
